<svg width="88" height="20" viewBox="0 0 88 20" fill="none" xmlns="http://www.w3.org/2000/svg">
<g id="Logo" clip-path="url(#clip0_10_70)">
<g id="Group">
<path id="Vector" d="M79.8828 16.9922C79.2969 16.9922 78.763 16.888 78.2812 16.6797C77.7995 16.4714 77.3893 16.1751 77.0508 15.791C76.7122 15.4069 76.4518 14.9479 76.2695 14.4141C76.0872 13.8802 75.9961 13.2943 75.9961 12.6562C75.9961 12.0182 76.0872 11.4323 76.2695 10.8984C76.4518 10.3646 76.7122 9.9056 77.0508 9.52148C77.3893 9.13737 77.7995 8.84115 78.2812 8.63281C78.763 8.41146 79.2969 8.30078 79.8828 8.30078C80.4557 8.30078 80.9766 8.40495 81.4453 8.61328C81.9141 8.83464 82.3177 9.13737 82.6562 9.52148C82.9948 9.9056 83.2617 10.3646 83.457 10.8984C83.6393 11.4193 83.7305 12.0052 83.7305 12.6562C83.7305 13.2943 83.6393 13.8802 83.457 14.4141C83.2617 14.9479 82.9948 15.4069 82.6562 15.791C82.3177 16.1751 81.9141 16.4714 81.4453 16.6797C80.9766 16.888 80.4557 16.9922 79.8828 16.9922ZM79.8828 5.3125C78.8151 5.3125 77.832 5.49479 76.9336 5.85938C76.0352 6.22396 75.2604 6.73177 74.6094 7.38281C73.9583 8.03385 73.4505 8.80859 73.0859 9.70703C72.7214 10.6055 72.5391 11.582 72.5391 12.6367C72.5391 13.7044 72.7214 14.6875 73.0859 15.5859C73.4505 16.4844 73.9583 17.2591 74.6094 17.9102C75.2604 18.5612 76.0352 19.069 76.9336 19.4336C77.819 19.7982 78.8021 19.9805 79.8828 19.9805C80.9375 19.9805 81.9141 19.7982 82.8125 19.4336C83.6979 19.069 84.4629 18.5579 85.1074 17.9004C85.752 17.2428 86.2565 16.4714 86.6211 15.5859C86.9857 14.6875 87.168 13.7044 87.168 12.6367C87.168 11.582 86.9857 10.6055 86.6211 9.70703C86.2565 8.82161 85.752 8.05013 85.1074 7.39258C84.4629 6.73503 83.6979 6.22396 82.8125 5.85938C81.9141 5.49479 80.9375 5.3125 79.8828 5.3125ZM64.2578 1.25V14.8047C64.2578 15.5859 64.375 16.2891 64.6094 16.9141C64.8568 17.526 65.1986 18.0436 65.6348 18.4668C66.071 18.89 66.6016 19.2122 67.2266 19.4336C67.8516 19.6549 68.5417 19.7656 69.2969 19.7656H71.582V16.6406H69.6875C69.0495 16.6406 68.5547 16.4583 68.2031 16.0938C67.8516 15.7292 67.6758 15.1823 67.6758 14.4531V8.45703H71.582V5.54688H67.6758V1.25H64.2578ZM57.793 19.7656V10.8398C57.793 10.1237 57.972 9.58333 58.3301 9.21875C58.6882 8.85417 59.1862 8.67188 59.8242 8.67188H62.5391V5.54688H59.4336C58.6654 5.54688 57.9753 5.65755 57.3633 5.87891C56.7383 6.10026 56.2044 6.42253 55.7617 6.8457C55.319 7.26888 54.9805 7.78646 54.7461 8.39844C54.4987 9.01042 54.375 9.71354 54.375 10.5078V19.7656H57.793ZM45.5859 16.9922C45 16.9922 44.4661 16.888 43.9844 16.6797C43.5156 16.4714 43.112 16.1751 42.7734 15.791C42.4349 15.4069 42.168 14.9479 41.9727 14.4141C41.7904 13.8802 41.6992 13.2943 41.6992 12.6562C41.6992 12.0182 41.7904 11.4323 41.9727 10.8984C42.168 10.3646 42.4349 9.9056 42.7734 9.52148C43.112 9.13737 43.5156 8.84115 43.9844 8.63281C44.4661 8.41146 45 8.30078 45.5859 8.30078C46.1589 8.30078 46.6797 8.41146 47.1484 8.63281C47.6302 8.84115 48.0404 9.13737 48.3789 9.52148C48.7174 9.9056 48.9779 10.3646 49.1602 10.8984C49.3424 11.4193 49.4336 12.0052 49.4336 12.6562C49.4336 13.2943 49.3424 13.8802 49.1602 14.4141C48.9779 14.9479 48.7174 15.4069 48.3789 15.791C48.0404 16.1751 47.6302 16.4714 47.1484 16.6797C46.6797 16.888 46.1589 16.9922 45.5859 16.9922ZM45.5859 5.3125C44.5182 5.3125 43.5352 5.49479 42.6367 5.85938C41.7383 6.22396 40.9635 6.73177 40.3125 7.38281C39.6615 8.03385 39.1602 8.80859 38.8086 9.70703C38.444 10.6055 38.2617 11.582 38.2617 12.6367C38.2617 13.7044 38.444 14.6875 38.8086 15.5859C39.1732 16.4844 39.6777 17.2591 40.3223 17.9102C40.9668 18.5612 41.7383 19.0755 42.6367 19.4531C43.5352 19.8177 44.5182 20 45.5859 20C46.6406 20 47.6172 19.8177 48.5156 19.4531C49.401 19.0885 50.1693 18.5775 50.8203 17.9199C51.4714 17.2624 51.9727 16.4844 52.3242 15.5859C52.6888 14.7005 52.8711 13.724 52.8711 12.6562C52.8711 11.6016 52.6888 10.625 52.3242 9.72656C51.9727 8.82812 51.4714 8.05339 50.8203 7.40234C50.1693 6.7513 49.401 6.24349 48.5156 5.87891C47.6172 5.5013 46.6406 5.3125 45.5859 5.3125ZM31.543 9.12109H27.6172V3.14453H31.543C32.6237 3.14453 33.4049 3.44401 33.8867 4.04297C34.3685 4.64193 34.6094 5.33854 34.6094 6.13281C34.6094 6.92708 34.3685 7.6237 33.8867 8.22266C33.4049 8.82161 32.6237 9.12109 31.543 9.12109ZM31.7188 0H23.9258V19.7656H27.6172V12.2656H31.7188C32.7344 12.2656 33.6393 12.1094 34.4336 11.7969C35.2279 11.4974 35.9049 11.0775 36.4648 10.5371C37.0247 9.99675 37.4479 9.34896 37.7344 8.59375C38.0339 7.85156 38.1836 7.03125 38.1836 6.13281C38.1836 5.23438 38.0339 4.40755 37.7344 3.65234C37.4479 2.91016 37.0247 2.26562 36.4648 1.71875C35.9049 1.17188 35.2279 0.748697 34.4336 0.449219C33.6393 0.14974 32.7344 0 31.7188 0ZM17.8906 10.7422C17.4349 10.2083 16.7513 9.86328 15.8398 9.70703C14.9414 9.53776 13.9193 9.50195 12.7734 9.59961C11.6276 9.69727 10.4232 9.89583 9.16016 10.1953C7.89714 10.4818 6.6862 10.8073 5.52734 11.1719C5.52734 11.1719 5.52409 11.1719 5.51758 11.1719C5.51107 11.1719 5.5013 11.1719 5.48828 11.1719C5.48828 11.1719 5.48503 11.1719 5.47852 11.1719C5.47201 11.1719 5.46224 11.1654 5.44922 11.1523C5.44922 11.1523 5.44596 11.1491 5.43945 11.1426C5.43294 11.1361 5.42969 11.1328 5.42969 11.1328C5.42969 11.1198 5.42643 11.11 5.41992 11.1035C5.41341 11.097 5.41016 11.0938 5.41016 11.0938C5.41016 10.9766 5.41341 10.8594 5.41992 10.7422C5.42643 10.625 5.42969 10.5143 5.42969 10.4102C5.42969 9.83724 5.4069 9.26432 5.36133 8.69141C5.31576 8.11849 5.24089 7.54557 5.13672 6.97266C5.13672 6.95964 5.13672 6.94987 5.13672 6.94336C5.13672 6.93685 5.14323 6.92708 5.15625 6.91406C5.15625 6.91406 5.15951 6.91081 5.16602 6.9043C5.17253 6.89779 5.18229 6.89453 5.19531 6.89453C6.14583 6.54297 7.29167 6.28255 8.63281 6.11328C9.96094 5.94401 11.2695 5.9668 12.5586 6.18164C13.8477 6.39648 15 6.84896 16.0156 7.53906C17.0312 8.24219 17.7083 9.29036 18.0469 10.6836C18.0599 10.7227 18.0436 10.752 17.998 10.7715C17.9525 10.791 17.9167 10.7812 17.8906 10.7422ZM14.0039 17.0117C13.9518 17.0638 13.8965 17.0638 13.8379 17.0117C13.7793 16.9596 13.7826 16.901 13.8477 16.8359C14.7721 15.9115 15.0033 15.1302 14.541 14.4922C14.0788 13.8542 10.4753 15.0391 3.73047 18.0469C3.69141 18.0599 3.65885 18.0534 3.63281 18.0273C3.60677 18.0013 3.60677 17.9688 3.63281 17.9297C3.9974 17.4219 4.33268 16.7448 4.63867 15.8984C4.94466 15.0521 5.17578 14.0365 5.33203 12.8516C5.33203 12.8385 5.33529 12.8288 5.3418 12.8223C5.34831 12.8158 5.35156 12.8125 5.35156 12.8125C5.35156 12.7995 5.35482 12.7897 5.36133 12.7832C5.36784 12.7767 5.3776 12.7734 5.39062 12.7734C7.5 11.9401 9.57682 11.3477 11.6211 10.9961C13.6654 10.6315 15.2539 10.5859 16.3867 10.8594C17.5195 11.1328 17.9948 11.7643 17.8125 12.7539C17.6302 13.7435 16.3672 15.1628 14.0234 17.0117H14.0039ZM2.73438 2.16797C2.72135 2.15495 2.71159 2.14518 2.70508 2.13867C2.69857 2.13216 2.69531 2.12891 2.69531 2.12891C2.69531 2.11588 2.69531 2.10612 2.69531 2.09961C2.69531 2.0931 2.69531 2.08333 2.69531 2.07031C2.69531 2.05729 2.69857 2.04753 2.70508 2.04102C2.71159 2.03451 2.72135 2.03125 2.73438 2.03125C2.73438 2.03125 2.74089 2.02799 2.75391 2.02148C2.76693 2.01497 2.77344 2.01172 2.77344 2.01172C3.35938 2.01172 4.19922 2.03125 5.29297 2.07031C6.3737 2.09635 7.54232 2.23958 8.79883 2.5C10.0553 2.76042 11.3086 3.1901 12.5586 3.78906C13.8086 4.38802 14.8893 5.25391 15.8008 6.38672C15.8268 6.42578 15.8171 6.45833 15.7715 6.48438C15.7259 6.51042 15.6901 6.51042 15.6641 6.48438C15.3906 6.25 14.987 5.98958 14.4531 5.70312C13.9193 5.42969 13.2194 5.20833 12.3535 5.03906C11.4876 4.86979 10.4362 4.79167 9.19922 4.80469C7.94922 4.81771 6.47135 5 4.76562 5.35156C4.7526 5.35156 4.73958 5.35156 4.72656 5.35156C4.71354 5.35156 4.70052 5.34505 4.6875 5.33203C4.6875 5.33203 4.68099 5.32878 4.66797 5.32227C4.65495 5.31575 4.64844 5.30599 4.64844 5.29297C4.375 4.44661 4.07227 3.77604 3.74023 3.28125C3.4082 2.78646 3.07292 2.41537 2.73438 2.16797ZM17.7539 0H2.38281C2.07031 0 1.76758 0.0618496 1.47461 0.185547C1.18164 0.309244 0.924479 0.481771 0.703125 0.703125C0.46875 0.924479 0.292969 1.17838 0.175781 1.46484C0.0585938 1.7513 0 2.05078 0 2.36328V17.6172C0 17.7734 0.0130208 17.9297 0.0390625 18.0859C0.0651042 18.2422 0.110677 18.3919 0.175781 18.5352C0.240885 18.6784 0.315755 18.8151 0.400391 18.9453C0.485026 19.0755 0.579427 19.1927 0.683594 19.2969C0.800781 19.4141 0.924479 19.515 1.05469 19.5996C1.1849 19.6842 1.32161 19.7526 1.46484 19.8047C1.60807 19.8698 1.75781 19.9186 1.91406 19.9512C2.07031 19.9837 2.22656 20 2.38281 20H17.7539C17.9102 20 18.0664 19.9837 18.2227 19.9512C18.3789 19.9186 18.5286 19.8698 18.6719 19.8047C18.8151 19.7526 18.9518 19.6842 19.082 19.5996C19.2122 19.515 19.3359 19.4141 19.4531 19.2969C19.5573 19.1927 19.6549 19.0755 19.7461 18.9453C19.8372 18.8151 19.9089 18.6784 19.9609 18.5352C20.026 18.3919 20.0716 18.2422 20.0977 18.0859C20.1237 17.9297 20.1367 17.7734 20.1367 17.6172V2.38281C20.1367 2.22656 20.1237 2.07357 20.0977 1.92383C20.0716 1.77409 20.026 1.62109 19.9609 1.46484C19.9089 1.32162 19.8405 1.18815 19.7559 1.06445C19.6712 0.940756 19.5703 0.820312 19.4531 0.703125C19.3359 0.598959 19.2122 0.501303 19.082 0.410156C18.9518 0.31901 18.8151 0.247396 18.6719 0.195312C18.5286 0.130209 18.3789 0.0813808 18.2227 0.0488281C18.0664 0.0162754 17.9102 0 17.7539 0Z" fill="#0046C0"/>
</g>
</g>
<defs>
<clipPath id="clip0_10_70">
<rect width="87.5" height="20" fill="white" transform="matrix(1 0 0 -1 0 20)"/>
</clipPath>
</defs>
</svg>
