<svg width="143" height="24" viewBox="0 0 143 24" fill="none" xmlns="http://www.w3.org/2000/svg">
<g id="Frame">
<g id="Clip path group">
<mask id="mask0_10_101" style="mask-type:luminance" maskUnits="userSpaceOnUse" x="0" y="0" width="143" height="24">
<g id="clip0_704_2085">
<path id="Vector" d="M142.003 0H0V24H142.003V0Z" fill="white"/>
</g>
</mask>
<g mask="url(#mask0_10_101)">
<g id="Group">
<path id="Vector_2" d="M20.9931 12.8898C18.8815 10.3021 11.9193 11.656 6.49442 13.3888C6.42562 13.4126 6.35499 13.3658 6.35683 13.2998C6.36508 13.0255 6.36967 12.7494 6.36967 12.4697C6.36967 10.9506 6.24492 9.64348 6.02293 8.35652C6.01468 8.31066 6.04495 8.26754 6.09448 8.2547C10.5846 6.61642 19.6291 6.11008 21.1766 12.8155C21.2023 12.9155 21.0555 12.9732 20.9913 12.8907M16.447 20.4125C16.2993 20.5225 16.1049 20.3418 16.2315 20.2125C18.4174 17.978 20.2125 14.4336 4.37731 21.6435C4.28008 21.6875 4.18376 21.5866 4.24706 21.5068C5.1194 20.2602 5.89818 18.2495 6.25042 15.4004C6.25409 15.3655 6.27702 15.3353 6.31188 15.3215C16.2351 11.334 27.4426 11.4817 16.4461 20.4134M3.20135 2.58217C3.11053 2.53631 3.14906 2.41064 3.2518 2.41156C5.99816 2.41981 14.2675 2.21434 18.5302 7.64654C18.588 7.73918 18.455 7.83458 18.3706 7.7612C17.0845 6.64119 13.6025 4.74515 5.57805 6.40544C5.52209 6.4192 5.4643 6.38801 5.45054 6.33665C4.81211 4.29384 3.99939 3.19034 3.20135 2.58217ZM20.8372 0H2.80599C1.25577 0 0 1.27503 0 2.84819V21.1518C0 22.725 1.25577 24 2.80599 24H20.8372C22.3865 24 23.6432 22.725 23.6432 21.1518V2.84819C23.6432 1.27503 22.3865 0 20.8372 0Z" fill="#00A1FC"/>
<path id="Vector_3" d="M27.6562 4.59473H33.4563C36.4696 4.59473 38.2656 6.45224 38.2656 9.07386C38.2656 11.6955 36.4696 13.553 33.4563 13.553H30.4017V19.043H27.6562V4.59473ZM33.3325 11.2616C34.9424 11.2616 35.6027 10.2296 35.6027 9.07386C35.6027 7.91807 34.9424 6.88612 33.3325 6.88612H30.4017V11.2616H33.3325ZM43.7556 8.47487C46.9139 8.47487 49.1842 10.7452 49.1842 13.841C49.1842 16.9369 46.9139 19.2072 43.7556 19.2072C40.5974 19.2072 38.3069 16.9369 38.3069 13.841C38.3069 10.7452 40.5772 8.47487 43.7556 8.47487ZM43.7556 17.0194C45.4692 17.0194 46.625 15.7187 46.625 13.841C46.625 11.9633 45.4692 10.6626 43.7556 10.6626C42.0421 10.6626 40.8662 11.9633 40.8662 13.841C40.8662 15.7187 42.0219 17.0194 43.7556 17.0194ZM50.34 12.355C50.34 9.98106 51.6819 8.63998 54.055 8.63998H56.3876V10.7663H54.4477C53.4359 10.7663 52.8791 11.3442 52.8791 12.3559V19.043H50.34V12.355ZM57.6674 5.50284H60.2063V8.63998H63.0958V10.7663H60.2063V15.3068C60.2063 16.3599 60.764 16.8965 61.7135 16.8965H63.0967V19.043H61.4245C59.1542 19.043 57.6683 17.7221 57.6683 15.4105L57.6674 5.50284ZM69.3078 8.47487C72.466 8.47487 74.7362 10.7452 74.7362 13.841C74.7362 16.9369 72.466 19.2072 69.3078 19.2072C66.1495 19.2072 63.8591 16.9369 63.8591 13.841C63.8591 10.7452 66.1293 8.47487 69.3078 8.47487ZM69.3078 17.0194C71.0213 17.0194 72.1771 15.7187 72.1771 13.841C72.1771 11.9633 71.0213 10.6626 69.3078 10.6626C67.5942 10.6626 66.4182 11.9633 66.4182 13.841C66.4182 15.7187 67.5741 17.0194 69.3078 17.0194Z" fill="#00A1FC"/>
<path id="Vector_4" d="M77.3398 14.1924H79.9816C80.1055 15.8023 81.2411 16.8342 83.0362 16.8342C84.6461 16.8342 85.7817 16.215 85.7817 14.9354C85.7817 11.8396 77.7737 13.986 77.7737 8.49604C77.7737 6.12209 79.8789 4.42969 82.9546 4.42969C86.0303 4.42969 88.0942 6.18446 88.218 8.88772H85.6175C85.4936 7.62828 84.5442 6.78254 82.9546 6.78254C81.3649 6.78254 80.5192 7.48427 80.5192 8.49604C80.5192 11.6543 88.5271 9.26014 88.5271 14.8941C88.5271 17.5772 86.2568 19.2082 83.0371 19.2082C79.8174 19.2082 77.5049 17.2681 77.3398 14.1924Z" fill="black"/>
<path id="Vector_5" d="M94.4919 8.47461C97.9804 8.47461 99.5489 11.0137 99.5489 13.4904C99.5489 13.8417 99.5278 14.1508 99.5077 14.3572H91.8299C92.0152 16.0295 93.0894 17.1027 94.6992 17.1027C95.9999 17.1027 96.8457 16.5661 97.1144 15.5754H99.5911C99.1994 17.7842 97.2585 19.2079 94.6992 19.2079C91.2933 19.2079 89.3945 16.5248 89.3945 13.8004C89.3945 11.0761 91.0869 8.47553 94.4928 8.47553L94.4919 8.47461ZM97.0099 12.685C96.9071 11.3641 95.9981 10.3734 94.4919 10.3734C93.0674 10.3734 92.1592 11.1165 91.8914 12.685H97.0099Z" fill="black"/>
<path id="Vector_6" d="M100.578 13.4693C100.578 10.5587 102.415 8.47461 105.49 8.47461C106.791 8.47461 107.947 9.01123 108.525 9.87807V8.63973H111.064V18.8767C111.064 21.5396 108.979 23.2522 105.842 23.2522C102.704 23.2522 100.826 21.6424 100.826 19.1859H103.344C103.385 20.3829 104.334 21.1259 105.842 21.1259C107.451 21.1259 108.546 20.2178 108.546 18.8758V17.0183C107.968 17.9475 106.832 18.4841 105.532 18.4841C102.437 18.4841 100.579 16.3789 100.579 13.4684L100.578 13.4693ZM105.883 16.3175C107.555 16.3175 108.711 15.1406 108.711 13.4693C108.711 11.798 107.555 10.6413 105.883 10.6413C104.211 10.6413 103.096 11.7971 103.096 13.4693C103.096 15.1415 104.232 16.3175 105.883 16.3175Z" fill="black"/>
<path id="Vector_7" d="M122.539 19.0422H120V17.4323C119.422 18.568 118.245 19.2073 116.759 19.2073C114.406 19.2073 112.879 17.5149 112.879 15.0795V8.64014H115.418V14.5429C115.418 15.9674 116.285 16.9581 117.586 16.9581C119.01 16.9581 120.001 15.8436 120.001 14.3163V8.64014H122.54L122.539 19.0422Z" fill="black"/>
<path id="Vector_8" d="M127.043 14.1301V19.0422H124.504V8.64014H127.043V10.4774C127.558 9.15658 128.364 8.64014 129.706 8.64014H130.924V10.7664H129.293C127.683 10.7664 127.043 12.1488 127.043 14.1301Z" fill="black"/>
<path id="Vector_9" d="M131.125 13.8408C131.125 10.7449 133.395 8.47461 136.574 8.47461C139.752 8.47461 142.002 10.7449 142.002 13.8408C142.002 16.9367 139.732 19.207 136.574 19.207C133.415 19.207 131.125 16.9367 131.125 13.8408ZM136.574 17.0192C138.287 17.0192 139.443 15.7185 139.443 13.8408C139.443 11.9631 138.287 10.6624 136.574 10.6624C134.86 10.6624 133.684 11.9631 133.684 13.8408C133.684 15.7185 134.84 17.0192 136.574 17.0192Z" fill="black"/>
</g>
</g>
</g>
</g>
</svg>
